<?xml version="1.0" standalone="no"?>
<!DOCTYPE svg PUBLIC "-//W3C//DTD SVG 20010904//EN"
 "http://www.w3.org/TR/2001/REC-SVG-20010904/DTD/svg10.dtd">
<svg version="1.0" xmlns="http://www.w3.org/2000/svg"
 width="67.000000pt" height="67.000000pt" viewBox="0 0 67.000000 67.000000"
 preserveAspectRatio="xMidYMid meet">

<g transform="translate(0.000000,67.000000) scale(0.100000,-0.100000)"
fill="#000000" stroke="none">
<path d="M77 663 c-4 -3 -7 -151 -7 -329 0 -284 2 -323 16 -328 9 -3 122 -6
253 -6 171 0 240 3 249 12 9 9 12 76 12 240 l0 228 -83 0 c-51 0 -88 5 -95 12
-7 7 -12 44 -12 95 l0 83 -163 0 c-90 0 -167 -3 -170 -7z m342 -290 c40 -30
73 -101 66 -143 -15 -82 -71 -130 -152 -130 -127 0 -196 145 -116 241 15 17
41 38 58 45 39 18 110 12 144 -13z"/>
<path d="M264 351 c-64 -39 -72 -142 -15 -193 41 -37 76 -44 125 -27 133 46
100 239 -41 239 -21 0 -52 -9 -69 -19z m164 -103 c-3 -9 -31 -13 -93 -13 -62
0 -90 4 -92 13 -4 9 19 12 92 12 73 0 96 -3 93 -12z"/>
<path d="M440 585 l0 -75 77 0 77 0 -74 75 c-41 41 -76 75 -77 75 -2 0 -3 -34
-3 -75z"/>
</g>
</svg>
